<svg xmlns="http://www.w3.org/2000/svg" xmlns:xlink="http://www.w3.org/1999/xlink" width="500" zoomAndPan="magnify" viewBox="0 0 375 374.999991" height="500" preserveAspectRatio="xMidYMid meet" version="1.2"><defs><clipPath id="a18c7e8e58"><path d="M 209 136 L 358.363281 136 L 358.363281 375 L 209 375 Z M 209 136 "/></clipPath><clipPath id="200d4e45c1"><path d="M 16.363281 295 L 115 295 L 115 362 L 16.363281 362 Z M 16.363281 295 "/></clipPath><clipPath id="0bf759e4e4"><path d="M 16.363281 276 L 115 276 L 115 343 L 16.363281 343 Z M 16.363281 276 "/></clipPath><clipPath id="5f48334dad"><path d="M 16.363281 256 L 115 256 L 115 324 L 16.363281 324 Z M 16.363281 256 "/></clipPath><clipPath id="3d66deb3f5"><path d="M 16.363281 233 L 115 233 L 115 300 L 16.363281 300 Z M 16.363281 233 "/></clipPath><clipPath id="e7e2557118"><path d="M 16.363281 214 L 115 214 L 115 281 L 16.363281 281 Z M 16.363281 214 "/></clipPath></defs><g id="31a03e7886"><path style=" stroke:none;fill-rule:nonzero;fill:#383838;fill-opacity:1;" d="M 201.898438 334.960938 L 74.480469 298.828125 C 65.109375 296.175781 57.800781 285.410156 57.800781 274.699219 L 57.800781 65.703125 C 57.800781 54.992188 65.121094 44.226562 74.480469 41.574219 L 201.898438 5.4375 C 218.023438 0.867188 231.769531 9.117188 231.769531 24.09375 L 231.769531 316.308594 C 231.769531 331.28125 218.023438 339.53125 201.898438 334.960938 Z M 201.898438 334.960938 "/><path style=" stroke:none;fill-rule:nonzero;fill:#ffffff;fill-opacity:1;" d="M 223.910156 29.339844 L 223.910156 305.609375 C 223.910156 319.589844 211.222656 327.546875 196.292969 323.574219 L 77.828125 291.988281 C 68.828125 289.59375 61.792969 279.425781 61.792969 269.203125 L 61.792969 67.214844 C 61.792969 57.429688 68.230469 47.65625 76.644531 44.65625 L 88.539062 52.871094 L 174.6875 31.554688 L 196.292969 11.644531 C 211.222656 7.515625 223.910156 15.359375 223.910156 29.339844 Z M 223.910156 29.339844 "/><path style=" stroke:none;fill-rule:nonzero;fill:#383838;fill-opacity:1;" d="M 209.566406 11.90625 L 209.542969 324.589844 L 220.46875 324.589844 C 220.46875 324.589844 224.550781 324.578125 228.160156 280.476562 C 231.78125 236.375 228.160156 12.289062 228.160156 12.289062 C 228.160156 12.289062 213.378906 -0.0234375 209.566406 11.90625 Z M 209.566406 11.90625 "/><path style=" stroke:none;fill-rule:nonzero;fill:#ff0000;fill-opacity:1;" d="M 207.277344 136.832031 C 205.699219 137.179688 204.242188 138.015625 203.046875 139.269531 C 201.277344 141.109375 200.285156 143.667969 200.230469 146.480469 L 196.375 364.730469 C 196.328125 367.632812 197.285156 370.261719 199.066406 372.132812 C 200.027344 373.136719 201.152344 373.859375 202.394531 374.265625 C 203.453125 374.617188 204.59375 374.742188 205.753906 374.617188 L 209.566406 374.210938 L 209.566406 136.660156 C 208.789062 136.605469 208.019531 136.660156 207.277344 136.832031 Z M 207.277344 136.832031 "/><g clip-rule="nonzero" clip-path="url(#a18c7e8e58)"><path style=" stroke:none;fill-rule:nonzero;fill:#ff0000;fill-opacity:1;" d="M 356.15625 355.703125 C 354.746094 357.722656 352.851562 358.953125 350.800781 359.179688 L 209.566406 374.210938 L 209.566406 136.660156 L 344.5625 145.78125 C 348.601562 146.050781 351.882812 150.269531 352.039062 155.382812 L 358.183594 348.582031 C 358.285156 351.167969 357.566406 353.695312 356.15625 355.703125 Z M 356.15625 355.703125 "/></g><path style=" stroke:none;fill-rule:nonzero;fill:#ff0000;fill-opacity:1;" d="M 322.949219 144.324219 L 315.574219 143.828125 C 310.207031 118.640625 304.566406 99.464844 298.769531 86.839844 C 295.398438 79.492188 290.179688 70.554688 284.507812 69.855469 L 284.460938 69.855469 C 279.667969 69.300781 275.011719 74.671875 271.921875 79.300781 C 267.910156 85.335938 263.839844 94.070312 259.835938 105.265625 C 255.109375 118.492188 251.636719 132 249.878906 139.402344 L 241.589844 138.839844 C 243.167969 132.035156 246.992188 116.527344 252.550781 101.058594 C 256.835938 89.117188 261.265625 79.71875 265.710938 73.09375 C 271.742188 64.097656 278.035156 59.96875 284.40625 60.757812 L 284.496094 60.769531 C 288.226562 61.253906 291.871094 63.410156 295.320312 67.179688 C 298.671875 70.835938 301.960938 76.164062 305.074219 83 C 311.332031 96.679688 317.332031 117.328125 322.949219 144.324219 Z M 322.949219 144.324219 "/><path style=" stroke:none;fill-rule:nonzero;fill:#ce0000;fill-opacity:1;" d="M 209.566406 136.660156 L 209.566406 375.011719 L 205.765625 374.605469 L 205.753906 374.617188 L 202.394531 374.265625 L 172.613281 371.164062 L 168.09375 139.742188 L 207.277344 136.832031 Z M 209.566406 136.660156 "/><path style=" stroke:none;fill-rule:nonzero;fill:#ffffff;fill-opacity:1;" d="M 236.84375 241.894531 C 233.28125 238.035156 231.5 232.867188 231.5 226.398438 C 231.5 219.933594 233.28125 214.765625 236.84375 210.90625 C 240.40625 207.046875 245.019531 205.117188 250.667969 205.117188 C 256.328125 205.117188 260.917969 207.046875 264.4375 210.90625 C 267.964844 214.765625 269.722656 219.933594 269.722656 226.398438 C 269.722656 232.867188 267.964844 238.035156 264.4375 241.894531 C 260.90625 245.753906 256.316406 247.683594 250.667969 247.683594 C 245.019531 247.683594 240.40625 245.753906 236.84375 241.894531 Z M 256.566406 235.5625 C 257.996094 233.507812 258.71875 230.449219 258.71875 226.410156 C 258.71875 222.371094 257.996094 219.3125 256.566406 217.257812 C 255.132812 215.203125 253.171875 214.167969 250.667969 214.167969 C 248.242188 214.167969 246.292969 215.214844 244.828125 217.304688 C 243.359375 219.402344 242.628906 222.425781 242.628906 226.398438 C 242.628906 230.371094 243.359375 233.394531 244.828125 235.496094 C 246.292969 237.59375 248.242188 238.632812 250.667969 238.632812 C 253.171875 238.644531 255.132812 237.617188 256.566406 235.5625 Z M 296.617188 206.007812 L 309.730469 206.007812 L 257.074219 283.183594 L 243.957031 283.183594 Z M 293.144531 281.480469 C 290.246094 279.753906 287.980469 277.273438 286.367188 274.035156 C 284.753906 270.792969 283.945312 267.046875 283.945312 262.78125 C 283.945312 258.515625 284.753906 254.769531 286.367188 251.53125 C 287.980469 248.292969 290.246094 245.820312 293.144531 244.082031 C 296.042969 242.355469 299.335938 241.488281 303 241.488281 C 308.660156 241.488281 313.261719 243.417969 316.824219 247.277344 C 320.386719 251.136719 322.167969 256.304688 322.167969 262.769531 C 322.167969 269.238281 320.386719 274.40625 316.824219 278.265625 C 313.261719 282.125 308.648438 284.054688 303 284.054688 C 299.335938 284.078125 296.042969 283.207031 293.144531 281.480469 Z M 308.898438 271.890625 C 310.328125 269.789062 311.050781 266.765625 311.050781 262.792969 C 311.050781 258.820312 310.339844 255.796875 308.898438 253.699219 C 307.464844 251.597656 305.503906 250.558594 303 250.558594 C 300.574219 250.558594 298.625 251.585938 297.160156 253.652344 C 295.691406 255.707031 294.960938 258.765625 294.960938 262.804688 C 294.960938 266.84375 295.691406 269.902344 297.160156 271.957031 C 298.625 274.011719 300.574219 275.050781 303 275.050781 C 305.503906 275.027344 307.464844 273.988281 308.898438 271.890625 Z M 308.898438 271.890625 "/><path style=" stroke:none;fill-rule:nonzero;fill:#ff8b00;fill-opacity:1;" d="M 148.5625 190.773438 C 150.695312 190.964844 152.519531 189.453125 152.792969 187.25 L 158.125 144.414062 C 158.28125 143.105469 157.886719 141.851562 157.03125 140.972656 C 156.183594 140.101562 154.96875 139.707031 153.703125 139.867188 L 98.96875 146.804688 L 98.96875 132.757812 L 90.117188 134.550781 C 89.644531 134.652344 89.261719 135.261719 89.261719 135.917969 C 89.261719 136.570312 89.644531 137.035156 90.117188 136.941406 L 97.097656 135.621094 L 97.097656 184.53125 L 90.457031 193.660156 L 99.34375 194.847656 C 98.394531 196.085938 97.832031 197.804688 97.832031 199.777344 C 97.832031 203.988281 100.4375 207.9375 103.75 208.601562 C 107.179688 209.300781 110.066406 206.234375 110.066406 201.753906 C 110.066406 199.644531 109.421875 197.632812 108.375 196.042969 L 136.800781 199.835938 C 135.4375 201.289062 134.625 203.332031 134.625 205.714844 C 134.625 210.757812 138.390625 215.632812 143.21875 216.617188 C 148.246094 217.632812 152.507812 214.054688 152.507812 208.601562 C 152.507812 206.042969 151.550781 203.558594 150.015625 201.605469 L 153.480469 202.070312 C 154.359375 202.183594 155.082031 201.550781 155.082031 200.648438 C 155.082031 199.746094 154.359375 198.933594 153.480469 198.820312 L 94.492188 191.765625 L 98.460938 186.382812 Z M 138.144531 149.46875 C 138.144531 148.632812 138.773438 147.890625 139.542969 147.8125 C 140.320312 147.730469 140.960938 148.351562 140.960938 149.210938 L 140.960938 179.171875 C 140.960938 180.019531 140.332031 180.683594 139.542969 180.640625 C 138.761719 180.605469 138.144531 179.894531 138.144531 179.058594 Z M 128.535156 150.359375 C 128.535156 149.558594 129.109375 148.847656 129.820312 148.78125 C 130.542969 148.714844 131.117188 149.3125 131.117188 150.125 L 131.117188 178.789062 C 131.117188 179.601562 130.53125 180.234375 129.820312 180.199219 C 129.109375 180.164062 128.535156 179.488281 128.535156 178.6875 Z M 119.71875 151.171875 C 119.71875 150.40625 120.25 149.730469 120.902344 149.660156 C 121.554688 149.59375 122.097656 150.167969 122.097656 150.949219 L 122.097656 178.414062 C 122.097656 179.195312 121.554688 179.804688 120.902344 179.769531 C 120.25 179.734375 119.71875 179.09375 119.71875 178.324219 Z M 111.597656 151.929688 C 111.597656 151.183594 112.085938 150.542969 112.691406 150.484375 C 113.300781 150.429688 113.796875 150.980469 113.796875 151.726562 L 113.796875 178.097656 C 113.796875 178.84375 113.300781 179.429688 112.691406 179.398438 C 112.09375 179.375 111.597656 178.742188 111.597656 178.007812 Z M 104.101562 152.628906 C 104.101562 151.917969 104.550781 151.296875 105.105469 151.242188 C 105.667969 151.183594 106.121094 151.726562 106.121094 152.4375 L 106.121094 177.796875 C 106.121094 178.515625 105.65625 179.070312 105.105469 179.046875 C 104.550781 179.023438 104.101562 178.425781 104.101562 177.714844 Z M 104.101562 152.628906 "/><path style=" stroke:none;fill-rule:nonzero;fill:#ff8b00;fill-opacity:1;" d="M 112.164062 328.347656 C 112.164062 329.359375 112.089844 330.367188 111.9375 331.375 C 111.789062 332.382812 111.5625 333.382812 111.265625 334.375 C 110.96875 335.367188 110.597656 336.347656 110.152344 337.3125 C 109.707031 338.28125 109.195312 339.234375 108.609375 340.167969 C 108.023438 341.101562 107.371094 342.015625 106.648438 342.90625 C 105.925781 343.800781 105.140625 344.667969 104.292969 345.507812 C 103.441406 346.347656 102.53125 347.160156 101.5625 347.941406 C 100.589844 348.722656 99.566406 349.472656 98.484375 350.1875 C 97.402344 350.902344 96.269531 351.582031 95.085938 352.222656 C 93.90625 352.867188 92.679688 353.46875 91.40625 354.03125 C 90.132812 354.589844 88.824219 355.109375 87.472656 355.585938 C 86.125 356.066406 84.746094 356.496094 83.332031 356.882812 C 81.917969 357.269531 80.480469 357.609375 79.015625 357.90625 C 77.550781 358.199219 76.070312 358.445312 74.570312 358.640625 C 73.070312 358.839844 71.558594 358.988281 70.035156 359.085938 C 68.511719 359.183594 66.988281 359.234375 65.457031 359.234375 C 63.929688 359.234375 62.402344 359.183594 60.878906 359.085938 C 59.359375 358.988281 57.847656 358.839844 56.347656 358.640625 C 54.84375 358.445312 53.363281 358.199219 51.898438 357.90625 C 50.4375 357.609375 48.996094 357.269531 47.585938 356.882812 C 46.171875 356.496094 44.789062 356.066406 43.441406 355.585938 C 42.09375 355.109375 40.78125 354.589844 39.507812 354.03125 C 38.238281 353.46875 37.011719 352.867188 35.828125 352.222656 C 34.644531 351.582031 33.511719 350.902344 32.433594 350.1875 C 31.351562 349.472656 30.324219 348.722656 29.355469 347.941406 C 28.382812 347.160156 27.472656 346.347656 26.625 345.507812 C 25.773438 344.667969 24.988281 343.800781 24.265625 342.90625 C 23.546875 342.015625 22.894531 341.101562 22.308594 340.167969 C 21.722656 339.234375 21.207031 338.28125 20.761719 337.3125 C 20.320312 336.347656 19.949219 335.367188 19.648438 334.375 C 19.351562 333.382812 19.128906 332.382812 18.976562 331.375 C 18.828125 330.367188 18.753906 329.359375 18.753906 328.347656 C 18.753906 327.335938 18.828125 326.328125 18.976562 325.320312 C 19.128906 324.3125 19.351562 323.3125 19.648438 322.320312 C 19.949219 321.328125 20.320312 320.351562 20.761719 319.382812 C 21.207031 318.414062 21.722656 317.460938 22.308594 316.527344 C 22.894531 315.59375 23.546875 314.679688 24.265625 313.789062 C 24.988281 312.894531 25.773438 312.027344 26.625 311.1875 C 27.472656 310.347656 28.382812 309.535156 29.355469 308.753906 C 30.324219 307.972656 31.351562 307.222656 32.433594 306.507812 C 33.511719 305.792969 34.644531 305.113281 35.828125 304.472656 C 37.011719 303.832031 38.238281 303.226562 39.507812 302.667969 C 40.78125 302.105469 42.09375 301.585938 43.441406 301.109375 C 44.789062 300.632812 46.171875 300.199219 47.585938 299.8125 C 48.996094 299.425781 50.4375 299.085938 51.898438 298.789062 C 53.363281 298.496094 54.84375 298.25 56.347656 298.054688 C 57.847656 297.855469 59.359375 297.707031 60.878906 297.609375 C 62.402344 297.511719 63.929688 297.460938 65.457031 297.460938 C 66.988281 297.460938 68.511719 297.511719 70.035156 297.609375 C 71.558594 297.707031 73.070312 297.855469 74.570312 298.054688 C 76.070312 298.25 77.550781 298.496094 79.015625 298.789062 C 80.480469 299.085938 81.917969 299.425781 83.332031 299.8125 C 84.746094 300.199219 86.125 300.632812 87.472656 301.109375 C 88.824219 301.585938 90.132812 302.105469 91.40625 302.667969 C 92.679688 303.226562 93.90625 303.832031 95.085938 304.472656 C 96.269531 305.113281 97.402344 305.792969 98.484375 306.507812 C 99.566406 307.222656 100.589844 307.972656 101.5625 308.753906 C 102.53125 309.535156 103.441406 310.347656 104.292969 311.1875 C 105.140625 312.027344 105.925781 312.894531 106.648438 313.789062 C 107.371094 314.679688 108.023438 315.59375 108.609375 316.527344 C 109.195312 317.460938 109.707031 318.414062 110.152344 319.382812 C 110.597656 320.351562 110.96875 321.328125 111.265625 322.320312 C 111.5625 323.3125 111.789062 324.3125 111.9375 325.320312 C 112.089844 326.328125 112.164062 327.335938 112.164062 328.347656 Z M 112.164062 328.347656 "/><g clip-rule="nonzero" clip-path="url(#200d4e45c1)"><path style=" stroke:none;fill-rule:nonzero;fill:#ffffff;fill-opacity:1;" d="M 65.457031 361.570312 C 52.535156 361.570312 40.347656 358.21875 31.144531 352.136719 C 21.648438 345.863281 16.417969 337.410156 16.417969 328.347656 C 16.417969 319.285156 21.648438 310.84375 31.144531 304.558594 C 40.347656 298.476562 52.523438 295.125 65.457031 295.125 C 78.378906 295.125 90.570312 298.476562 99.769531 304.558594 C 109.265625 310.84375 114.496094 319.285156 114.496094 328.347656 C 114.496094 337.410156 109.265625 345.851562 99.769531 352.136719 C 90.570312 358.21875 78.378906 361.570312 65.457031 361.570312 Z M 65.457031 299.796875 C 53.4375 299.796875 42.160156 302.878906 33.714844 308.453125 C 25.574219 313.835938 21.085938 320.910156 21.085938 328.347656 C 21.085938 335.785156 25.574219 342.859375 33.714844 348.242188 C 42.160156 353.828125 53.4375 356.898438 65.457031 356.898438 C 77.476562 356.898438 88.753906 353.816406 97.199219 348.242188 C 105.339844 342.859375 109.828125 335.785156 109.828125 328.347656 C 109.828125 320.910156 105.339844 313.835938 97.199219 308.453125 C 88.753906 302.878906 77.476562 299.796875 65.457031 299.796875 Z M 65.457031 299.796875 "/></g><path style=" stroke:none;fill-rule:nonzero;fill:#ff8b00;fill-opacity:1;" d="M 112.164062 309.445312 C 112.164062 310.457031 112.089844 311.464844 111.9375 312.472656 C 111.789062 313.480469 111.5625 314.480469 111.265625 315.472656 C 110.96875 316.464844 110.597656 317.445312 110.152344 318.410156 C 109.707031 319.378906 109.195312 320.332031 108.609375 321.265625 C 108.023438 322.199219 107.371094 323.113281 106.648438 324.003906 C 105.925781 324.898438 105.140625 325.765625 104.292969 326.605469 C 103.441406 327.445312 102.53125 328.257812 101.5625 329.039062 C 100.589844 329.820312 99.566406 330.570312 98.484375 331.285156 C 97.402344 332 96.269531 332.679688 95.085938 333.320312 C 93.90625 333.964844 92.679688 334.566406 91.40625 335.128906 C 90.132812 335.6875 88.824219 336.207031 87.472656 336.683594 C 86.125 337.164062 84.746094 337.59375 83.332031 337.980469 C 81.917969 338.367188 80.480469 338.707031 79.015625 339.003906 C 77.550781 339.296875 76.070312 339.542969 74.570312 339.738281 C 73.070312 339.9375 71.558594 340.085938 70.035156 340.183594 C 68.511719 340.28125 66.988281 340.332031 65.457031 340.332031 C 63.929688 340.332031 62.402344 340.28125 60.878906 340.183594 C 59.359375 340.085938 57.847656 339.9375 56.347656 339.738281 C 54.84375 339.542969 53.363281 339.296875 51.898438 339.003906 C 50.4375 338.707031 48.996094 338.367188 47.585938 337.980469 C 46.171875 337.59375 44.789062 337.164062 43.441406 336.683594 C 42.09375 336.207031 40.78125 335.6875 39.507812 335.128906 C 38.238281 334.566406 37.011719 333.964844 35.828125 333.320312 C 34.644531 332.679688 33.511719 332 32.433594 331.285156 C 31.351562 330.570312 30.324219 329.820312 29.355469 329.039062 C 28.382812 328.257812 27.472656 327.445312 26.625 326.605469 C 25.773438 325.765625 24.988281 324.898438 24.265625 324.003906 C 23.546875 323.113281 22.894531 322.199219 22.308594 321.265625 C 21.722656 320.332031 21.207031 319.378906 20.761719 318.410156 C 20.320312 317.445312 19.949219 316.464844 19.648438 315.472656 C 19.351562 314.480469 19.128906 313.480469 18.976562 312.472656 C 18.828125 311.464844 18.753906 310.457031 18.753906 309.445312 C 18.753906 308.433594 18.828125 307.425781 18.976562 306.417969 C 19.128906 305.410156 19.351562 304.410156 19.648438 303.417969 C 19.949219 302.425781 20.320312 301.449219 20.761719 300.480469 C 21.207031 299.511719 21.722656 298.558594 22.308594 297.625 C 22.894531 296.691406 23.546875 295.777344 24.265625 294.886719 C 24.988281 293.992188 25.773438 293.125 26.625 292.285156 C 27.472656 291.445312 28.382812 290.632812 29.355469 289.851562 C 30.324219 289.070312 31.351562 288.320312 32.433594 287.605469 C 33.511719 286.890625 34.644531 286.210938 35.828125 285.570312 C 37.011719 284.929688 38.238281 284.324219 39.507812 283.765625 C 40.78125 283.203125 42.09375 282.683594 43.441406 282.207031 C 44.789062 281.730469 46.171875 281.296875 47.585938 280.910156 C 48.996094 280.523438 50.4375 280.183594 51.898438 279.886719 C 53.363281 279.59375 54.84375 279.347656 56.347656 279.152344 C 57.847656 278.953125 59.359375 278.804688 60.878906 278.707031 C 62.402344 278.609375 63.929688 278.558594 65.457031 278.558594 C 66.988281 278.558594 68.511719 278.609375 70.035156 278.707031 C 71.558594 278.804688 73.070312 278.953125 74.570312 279.152344 C 76.070312 279.347656 77.550781 279.59375 79.015625 279.886719 C 80.480469 280.183594 81.917969 280.523438 83.332031 280.910156 C 84.746094 281.296875 86.125 281.730469 87.472656 282.207031 C 88.824219 282.683594 90.132812 283.203125 91.40625 283.765625 C 92.679688 284.324219 93.90625 284.929688 95.085938 285.570312 C 96.269531 286.210938 97.402344 286.890625 98.484375 287.605469 C 99.566406 288.320312 100.589844 289.070312 101.5625 289.851562 C 102.53125 290.632812 103.441406 291.445312 104.292969 292.285156 C 105.140625 293.125 105.925781 293.992188 106.648438 294.886719 C 107.371094 295.777344 108.023438 296.691406 108.609375 297.625 C 109.195312 298.558594 109.707031 299.511719 110.152344 300.480469 C 110.597656 301.449219 110.96875 302.425781 111.265625 303.417969 C 111.5625 304.410156 111.789062 305.410156 111.9375 306.417969 C 112.089844 307.425781 112.164062 308.433594 112.164062 309.445312 Z M 112.164062 309.445312 "/><g clip-rule="nonzero" clip-path="url(#0bf759e4e4)"><path style=" stroke:none;fill-rule:nonzero;fill:#ffffff;fill-opacity:1;" d="M 65.457031 342.667969 C 52.535156 342.667969 40.347656 339.316406 31.144531 333.234375 C 21.648438 326.960938 16.417969 318.507812 16.417969 309.445312 C 16.417969 300.382812 21.648438 291.941406 31.144531 285.65625 C 40.347656 279.574219 52.523438 276.222656 65.457031 276.222656 C 78.378906 276.222656 90.570312 279.574219 99.769531 285.65625 C 109.265625 291.941406 114.496094 300.382812 114.496094 309.445312 C 114.496094 318.507812 109.265625 326.949219 99.769531 333.234375 C 90.570312 339.328125 78.378906 342.667969 65.457031 342.667969 Z M 65.457031 280.894531 C 53.4375 280.894531 42.160156 283.976562 33.714844 289.550781 C 25.574219 294.933594 21.085938 302.007812 21.085938 309.445312 C 21.085938 316.882812 25.574219 323.957031 33.714844 329.339844 C 42.160156 334.925781 53.4375 337.996094 65.457031 337.996094 C 77.476562 337.996094 88.753906 334.914062 97.199219 329.339844 C 105.339844 323.957031 109.828125 316.882812 109.828125 309.445312 C 109.828125 302.007812 105.339844 294.933594 97.199219 289.550781 C 88.753906 283.976562 77.476562 280.894531 65.457031 280.894531 Z M 65.457031 280.894531 "/></g><path style=" stroke:none;fill-rule:nonzero;fill:#ff8b00;fill-opacity:1;" d="M 112.164062 289.867188 C 112.164062 290.878906 112.089844 291.886719 111.9375 292.894531 C 111.789062 293.898438 111.5625 294.898438 111.265625 295.890625 C 110.96875 296.882812 110.597656 297.863281 110.152344 298.832031 C 109.707031 299.800781 109.195312 300.75 108.609375 301.6875 C 108.023438 302.621094 107.371094 303.535156 106.648438 304.425781 C 105.925781 305.316406 105.140625 306.183594 104.292969 307.027344 C 103.441406 307.867188 102.53125 308.679688 101.5625 309.460938 C 100.589844 310.242188 99.566406 310.992188 98.484375 311.707031 C 97.402344 312.421875 96.269531 313.101562 95.085938 313.742188 C 93.90625 314.382812 92.679688 314.984375 91.40625 315.546875 C 90.132812 316.109375 88.824219 316.628906 87.472656 317.105469 C 86.125 317.582031 84.746094 318.015625 83.332031 318.402344 C 81.917969 318.789062 80.480469 319.128906 79.015625 319.421875 C 77.550781 319.714844 76.070312 319.960938 74.570312 320.160156 C 73.070312 320.355469 71.558594 320.503906 70.035156 320.605469 C 68.511719 320.703125 66.988281 320.753906 65.457031 320.753906 C 63.929688 320.753906 62.402344 320.703125 60.878906 320.605469 C 59.359375 320.503906 57.847656 320.355469 56.347656 320.160156 C 54.84375 319.960938 53.363281 319.714844 51.898438 319.421875 C 50.4375 319.128906 48.996094 318.789062 47.585938 318.402344 C 46.171875 318.015625 44.789062 317.582031 43.441406 317.105469 C 42.09375 316.628906 40.78125 316.109375 39.507812 315.546875 C 38.238281 314.984375 37.011719 314.382812 35.828125 313.742188 C 34.644531 313.101562 33.511719 312.421875 32.433594 311.707031 C 31.351562 310.992188 30.324219 310.242188 29.355469 309.460938 C 28.382812 308.679688 27.472656 307.867188 26.625 307.027344 C 25.773438 306.183594 24.988281 305.316406 24.265625 304.425781 C 23.546875 303.535156 22.894531 302.621094 22.308594 301.6875 C 21.722656 300.75 21.207031 299.800781 20.761719 298.832031 C 20.320312 297.863281 19.949219 296.882812 19.648438 295.890625 C 19.351562 294.898438 19.128906 293.898438 18.976562 292.894531 C 18.828125 291.886719 18.753906 290.878906 18.753906 289.867188 C 18.753906 288.855469 18.828125 287.84375 18.976562 286.839844 C 19.128906 285.832031 19.351562 284.832031 19.648438 283.839844 C 19.949219 282.847656 20.320312 281.867188 20.761719 280.898438 C 21.207031 279.933594 21.722656 278.980469 22.308594 278.046875 C 22.894531 277.113281 23.546875 276.199219 24.265625 275.304688 C 24.988281 274.414062 25.773438 273.546875 26.625 272.707031 C 27.472656 271.863281 28.382812 271.054688 29.355469 270.273438 C 30.324219 269.488281 31.351562 268.742188 32.433594 268.027344 C 33.511719 267.308594 34.644531 266.632812 35.828125 265.988281 C 37.011719 265.347656 38.238281 264.746094 39.507812 264.183594 C 40.78125 263.621094 42.09375 263.101562 43.441406 262.625 C 44.789062 262.148438 46.171875 261.71875 47.585938 261.332031 C 48.996094 260.941406 50.4375 260.601562 51.898438 260.308594 C 53.363281 260.015625 54.84375 259.769531 56.347656 259.574219 C 57.847656 259.375 59.359375 259.226562 60.878906 259.128906 C 62.402344 259.027344 63.929688 258.980469 65.457031 258.980469 C 66.988281 258.980469 68.511719 259.027344 70.035156 259.128906 C 71.558594 259.226562 73.070312 259.375 74.570312 259.574219 C 76.070312 259.769531 77.550781 260.015625 79.015625 260.308594 C 80.480469 260.601562 81.917969 260.941406 83.332031 261.332031 C 84.746094 261.71875 86.125 262.148438 87.472656 262.625 C 88.824219 263.101562 90.132812 263.621094 91.40625 264.183594 C 92.679688 264.746094 93.90625 265.347656 95.085938 265.988281 C 96.269531 266.632812 97.402344 267.308594 98.484375 268.027344 C 99.566406 268.742188 100.589844 269.488281 101.5625 270.273438 C 102.53125 271.054688 103.441406 271.863281 104.292969 272.707031 C 105.140625 273.546875 105.925781 274.414062 106.648438 275.304688 C 107.371094 276.199219 108.023438 277.113281 108.609375 278.046875 C 109.195312 278.980469 109.707031 279.933594 110.152344 280.898438 C 110.597656 281.867188 110.96875 282.847656 111.265625 283.839844 C 111.5625 284.832031 111.789062 285.832031 111.9375 286.839844 C 112.089844 287.84375 112.164062 288.855469 112.164062 289.867188 Z M 112.164062 289.867188 "/><g clip-rule="nonzero" clip-path="url(#5f48334dad)"><path style=" stroke:none;fill-rule:nonzero;fill:#ffffff;fill-opacity:1;" d="M 65.457031 323.089844 C 52.535156 323.089844 40.347656 319.738281 31.144531 313.65625 C 21.648438 307.378906 16.417969 298.929688 16.417969 289.867188 C 16.417969 280.804688 21.648438 272.363281 31.144531 266.078125 C 40.347656 259.996094 52.523438 256.644531 65.457031 256.644531 C 78.378906 256.644531 90.570312 259.996094 99.769531 266.078125 C 109.265625 272.363281 114.496094 280.804688 114.496094 289.867188 C 114.496094 298.929688 109.265625 307.367188 99.769531 313.65625 C 90.570312 319.738281 78.378906 323.089844 65.457031 323.089844 Z M 65.457031 261.316406 C 53.4375 261.316406 42.160156 264.394531 33.714844 269.96875 C 25.574219 275.355469 21.085938 282.429688 21.085938 289.867188 C 21.085938 297.304688 25.574219 304.378906 33.714844 309.761719 C 42.160156 315.347656 53.4375 318.417969 65.457031 318.417969 C 77.476562 318.417969 88.753906 315.335938 97.199219 309.761719 C 105.339844 304.378906 109.828125 297.304688 109.828125 289.867188 C 109.828125 282.429688 105.339844 275.355469 97.199219 269.96875 C 88.753906 264.382812 77.476562 261.316406 65.457031 261.316406 Z M 65.457031 261.316406 "/></g><path style=" stroke:none;fill-rule:nonzero;fill:#ff8b00;fill-opacity:1;" d="M 112.164062 266.574219 C 112.164062 267.585938 112.089844 268.59375 111.9375 269.601562 C 111.789062 270.609375 111.5625 271.609375 111.265625 272.601562 C 110.96875 273.59375 110.597656 274.570312 110.152344 275.539062 C 109.707031 276.507812 109.195312 277.460938 108.609375 278.394531 C 108.023438 279.328125 107.371094 280.242188 106.648438 281.132812 C 105.925781 282.027344 105.140625 282.894531 104.292969 283.734375 C 103.441406 284.574219 102.53125 285.386719 101.5625 286.167969 C 100.589844 286.949219 99.566406 287.699219 98.484375 288.414062 C 97.402344 289.128906 96.269531 289.808594 95.085938 290.449219 C 93.90625 291.089844 92.679688 291.695312 91.40625 292.253906 C 90.132812 292.816406 88.824219 293.335938 87.472656 293.8125 C 86.125 294.289062 84.746094 294.722656 83.332031 295.109375 C 81.917969 295.496094 80.480469 295.835938 79.015625 296.132812 C 77.550781 296.425781 76.070312 296.671875 74.570312 296.867188 C 73.070312 297.066406 71.558594 297.214844 70.035156 297.3125 C 68.511719 297.410156 66.988281 297.460938 65.457031 297.460938 C 63.929688 297.460938 62.402344 297.410156 60.878906 297.3125 C 59.359375 297.214844 57.847656 297.066406 56.347656 296.867188 C 54.84375 296.671875 53.363281 296.425781 51.898438 296.132812 C 50.4375 295.835938 48.996094 295.496094 47.585938 295.109375 C 46.171875 294.722656 44.789062 294.289062 43.441406 293.8125 C 42.09375 293.335938 40.78125 292.816406 39.507812 292.253906 C 38.238281 291.695312 37.011719 291.089844 35.828125 290.449219 C 34.644531 289.808594 33.511719 289.128906 32.433594 288.414062 C 31.351562 287.699219 30.324219 286.949219 29.355469 286.167969 C 28.382812 285.386719 27.472656 284.574219 26.625 283.734375 C 25.773438 282.894531 24.988281 282.027344 24.265625 281.132812 C 23.546875 280.242188 22.894531 279.328125 22.308594 278.394531 C 21.722656 277.460938 21.207031 276.507812 20.761719 275.539062 C 20.320312 274.570312 19.949219 273.59375 19.648438 272.601562 C 19.351562 271.609375 19.128906 270.609375 18.976562 269.601562 C 18.828125 268.59375 18.753906 267.585938 18.753906 266.574219 C 18.753906 265.5625 18.828125 264.554688 18.976562 263.546875 C 19.128906 262.539062 19.351562 261.539062 19.648438 260.546875 C 19.949219 259.554688 20.320312 258.574219 20.761719 257.609375 C 21.207031 256.640625 21.722656 255.6875 22.308594 254.753906 C 22.894531 253.820312 23.546875 252.90625 24.265625 252.015625 C 24.988281 251.121094 25.773438 250.253906 26.625 249.414062 C 27.472656 248.574219 28.382812 247.761719 29.355469 246.980469 C 30.324219 246.199219 31.351562 245.449219 32.433594 244.734375 C 33.511719 244.019531 34.644531 243.339844 35.828125 242.699219 C 37.011719 242.054688 38.238281 241.453125 39.507812 240.890625 C 40.78125 240.332031 42.09375 239.8125 43.441406 239.335938 C 44.789062 238.855469 46.171875 238.425781 47.585938 238.039062 C 48.996094 237.652344 50.4375 237.308594 51.898438 237.015625 C 53.363281 236.722656 54.84375 236.476562 56.347656 236.28125 C 57.847656 236.082031 59.359375 235.933594 60.878906 235.835938 C 62.402344 235.738281 63.929688 235.6875 65.457031 235.6875 C 66.988281 235.6875 68.511719 235.738281 70.035156 235.835938 C 71.558594 235.933594 73.070312 236.082031 74.570312 236.28125 C 76.070312 236.476562 77.550781 236.722656 79.015625 237.015625 C 80.480469 237.308594 81.917969 237.652344 83.332031 238.039062 C 84.746094 238.425781 86.125 238.855469 87.472656 239.335938 C 88.824219 239.8125 90.132812 240.332031 91.40625 240.890625 C 92.679688 241.453125 93.90625 242.054688 95.085938 242.699219 C 96.269531 243.339844 97.402344 244.019531 98.484375 244.734375 C 99.566406 245.449219 100.589844 246.199219 101.5625 246.980469 C 102.53125 247.761719 103.441406 248.574219 104.292969 249.414062 C 105.140625 250.253906 105.925781 251.121094 106.648438 252.015625 C 107.371094 252.90625 108.023438 253.820312 108.609375 254.753906 C 109.195312 255.6875 109.707031 256.640625 110.152344 257.609375 C 110.597656 258.574219 110.96875 259.554688 111.265625 260.546875 C 111.5625 261.539062 111.789062 262.539062 111.9375 263.546875 C 112.089844 264.554688 112.164062 265.5625 112.164062 266.574219 Z M 112.164062 266.574219 "/><g clip-rule="nonzero" clip-path="url(#3d66deb3f5)"><path style=" stroke:none;fill-rule:nonzero;fill:#ffffff;fill-opacity:1;" d="M 65.457031 299.796875 C 52.535156 299.796875 40.347656 296.445312 31.144531 290.363281 C 21.648438 284.089844 16.417969 275.636719 16.417969 266.574219 C 16.417969 257.511719 21.648438 249.070312 31.144531 242.785156 C 40.347656 236.703125 52.523438 233.351562 65.457031 233.351562 C 78.378906 233.351562 90.570312 236.703125 99.769531 242.785156 C 109.265625 249.070312 114.496094 257.511719 114.496094 266.574219 C 114.496094 275.636719 109.265625 284.078125 99.769531 290.363281 C 90.570312 296.445312 78.378906 299.796875 65.457031 299.796875 Z M 65.457031 238.023438 C 53.4375 238.023438 42.160156 241.105469 33.714844 246.679688 C 25.574219 252.0625 21.085938 259.136719 21.085938 266.574219 C 21.085938 274.011719 25.574219 281.085938 33.714844 286.46875 C 42.160156 292.054688 53.4375 295.125 65.457031 295.125 C 77.476562 295.125 88.753906 292.042969 97.199219 286.46875 C 105.339844 281.085938 109.828125 274.011719 109.828125 266.574219 C 109.828125 259.136719 105.339844 252.0625 97.199219 246.679688 C 88.753906 241.09375 77.476562 238.023438 65.457031 238.023438 Z M 65.457031 238.023438 "/></g><path style=" stroke:none;fill-rule:nonzero;fill:#ff8b00;fill-opacity:1;" d="M 112.164062 247.671875 C 112.164062 248.683594 112.089844 249.691406 111.9375 250.699219 C 111.789062 251.707031 111.5625 252.707031 111.265625 253.699219 C 110.96875 254.6875 110.597656 255.667969 110.152344 256.636719 C 109.707031 257.605469 109.195312 258.558594 108.609375 259.492188 C 108.023438 260.425781 107.371094 261.339844 106.648438 262.230469 C 105.925781 263.125 105.140625 263.992188 104.292969 264.832031 C 103.441406 265.671875 102.53125 266.484375 101.5625 267.265625 C 100.589844 268.046875 99.566406 268.796875 98.484375 269.511719 C 97.402344 270.226562 96.269531 270.90625 95.085938 271.546875 C 93.90625 272.1875 92.679688 272.792969 91.40625 273.351562 C 90.132812 273.914062 88.824219 274.433594 87.472656 274.910156 C 86.125 275.386719 84.746094 275.820312 83.332031 276.207031 C 81.917969 276.59375 80.480469 276.933594 79.015625 277.230469 C 77.550781 277.523438 76.070312 277.769531 74.570312 277.964844 C 73.070312 278.164062 71.558594 278.3125 70.035156 278.410156 C 68.511719 278.507812 66.988281 278.558594 65.457031 278.558594 C 63.929688 278.558594 62.402344 278.507812 60.878906 278.410156 C 59.359375 278.3125 57.847656 278.164062 56.347656 277.964844 C 54.84375 277.769531 53.363281 277.523438 51.898438 277.230469 C 50.4375 276.933594 48.996094 276.59375 47.585938 276.207031 C 46.171875 275.820312 44.789062 275.386719 43.441406 274.910156 C 42.09375 274.433594 40.78125 273.914062 39.507812 273.351562 C 38.238281 272.792969 37.011719 272.1875 35.828125 271.546875 C 34.644531 270.90625 33.511719 270.226562 32.433594 269.511719 C 31.351562 268.796875 30.324219 268.046875 29.355469 267.265625 C 28.382812 266.484375 27.472656 265.671875 26.625 264.832031 C 25.773438 263.992188 24.988281 263.125 24.265625 262.230469 C 23.546875 261.339844 22.894531 260.425781 22.308594 259.492188 C 21.722656 258.558594 21.207031 257.605469 20.761719 256.636719 C 20.320312 255.667969 19.949219 254.6875 19.648438 253.699219 C 19.351562 252.707031 19.128906 251.707031 18.976562 250.699219 C 18.828125 249.691406 18.753906 248.683594 18.753906 247.671875 C 18.753906 246.660156 18.828125 245.652344 18.976562 244.644531 C 19.128906 243.636719 19.351562 242.636719 19.648438 241.644531 C 19.949219 240.652344 20.320312 239.671875 20.761719 238.707031 C 21.207031 237.738281 21.722656 236.785156 22.308594 235.851562 C 22.894531 234.917969 23.546875 234.003906 24.265625 233.113281 C 24.988281 232.21875 25.773438 231.351562 26.625 230.511719 C 27.472656 229.671875 28.382812 228.859375 29.355469 228.078125 C 30.324219 227.296875 31.351562 226.546875 32.433594 225.832031 C 33.511719 225.117188 34.644531 224.4375 35.828125 223.796875 C 37.011719 223.152344 38.238281 222.550781 39.507812 221.988281 C 40.78125 221.429688 42.09375 220.910156 43.441406 220.429688 C 44.789062 219.953125 46.171875 219.523438 47.585938 219.136719 C 48.996094 218.75 50.4375 218.40625 51.898438 218.113281 C 53.363281 217.820312 54.84375 217.574219 56.347656 217.378906 C 57.847656 217.179688 59.359375 217.03125 60.878906 216.933594 C 62.402344 216.835938 63.929688 216.785156 65.457031 216.785156 C 66.988281 216.785156 68.511719 216.835938 70.035156 216.933594 C 71.558594 217.03125 73.070312 217.179688 74.570312 217.378906 C 76.070312 217.574219 77.550781 217.820312 79.015625 218.113281 C 80.480469 218.40625 81.917969 218.75 83.332031 219.136719 C 84.746094 219.523438 86.125 219.953125 87.472656 220.429688 C 88.824219 220.910156 90.132812 221.429688 91.40625 221.988281 C 92.679688 222.550781 93.90625 223.152344 95.085938 223.796875 C 96.269531 224.4375 97.402344 225.117188 98.484375 225.832031 C 99.566406 226.546875 100.589844 227.296875 101.5625 228.078125 C 102.53125 228.859375 103.441406 229.671875 104.292969 230.511719 C 105.140625 231.351562 105.925781 232.21875 106.648438 233.113281 C 107.371094 234.003906 108.023438 234.917969 108.609375 235.851562 C 109.195312 236.785156 109.707031 237.738281 110.152344 238.707031 C 110.597656 239.671875 110.96875 240.652344 111.265625 241.644531 C 111.5625 242.636719 111.789062 243.636719 111.9375 244.644531 C 112.089844 245.652344 112.164062 246.660156 112.164062 247.671875 Z M 112.164062 247.671875 "/><g clip-rule="nonzero" clip-path="url(#e7e2557118)"><path style=" stroke:none;fill-rule:nonzero;fill:#ffffff;fill-opacity:1;" d="M 65.457031 280.894531 C 52.535156 280.894531 40.347656 277.542969 31.144531 271.460938 C 21.648438 265.1875 16.417969 256.734375 16.417969 247.671875 C 16.417969 238.609375 21.648438 230.167969 31.144531 223.882812 C 40.347656 217.800781 52.523438 214.449219 65.457031 214.449219 C 78.378906 214.449219 90.570312 217.800781 99.769531 223.882812 C 109.265625 230.167969 114.496094 238.609375 114.496094 247.671875 C 114.496094 256.734375 109.265625 265.175781 99.769531 271.460938 C 90.570312 277.542969 78.378906 280.894531 65.457031 280.894531 Z M 65.457031 219.121094 C 53.4375 219.121094 42.160156 222.203125 33.714844 227.777344 C 25.574219 233.160156 21.085938 240.234375 21.085938 247.671875 C 21.085938 255.109375 25.574219 262.183594 33.714844 267.566406 C 42.160156 273.152344 53.4375 276.222656 65.457031 276.222656 C 77.476562 276.222656 88.753906 273.140625 97.199219 267.566406 C 105.339844 262.183594 109.828125 255.109375 109.828125 247.671875 C 109.828125 240.234375 105.339844 233.160156 97.199219 227.777344 C 88.753906 222.191406 77.476562 219.121094 65.457031 219.121094 Z M 65.457031 219.121094 "/></g><path style=" stroke:none;fill-rule:nonzero;fill:#ffffff;fill-opacity:1;" d="M 64.523438 268.546875 L 64.523438 264.859375 C 59.910156 264.382812 55.773438 262.554688 52.105469 259.351562 L 55.792969 254.960938 C 58.625 257.421875 61.523438 258.890625 64.523438 259.351562 L 64.523438 249.554688 C 60.722656 248.640625 57.9375 247.457031 56.175781 245.96875 C 54.40625 244.488281 53.527344 242.289062 53.527344 239.378906 C 53.527344 236.464844 54.542969 234.085938 56.582031 232.234375 C 58.613281 230.382812 61.261719 229.378906 64.53125 229.210938 L 64.53125 226.679688 L 67.757812 226.679688 L 67.757812 229.253906 C 71.457031 229.523438 74.953125 230.789062 78.257812 233.046875 L 74.976562 237.695312 C 72.753906 236.117188 70.351562 235.132812 67.757812 234.773438 L 67.757812 244.261719 L 67.90625 244.261719 C 71.773438 245.175781 74.613281 246.394531 76.429688 247.953125 C 78.246094 249.5 79.15625 251.746094 79.15625 254.691406 C 79.15625 257.636719 78.121094 260.039062 76.035156 261.890625 C 73.949219 263.742188 71.1875 264.757812 67.757812 264.914062 L 67.757812 268.546875 Z M 60.96875 235.957031 C 60.113281 236.714844 59.683594 237.660156 59.683594 238.789062 C 59.683594 239.917969 60.023438 240.808594 60.6875 241.464844 C 61.363281 242.121094 62.640625 242.75 64.523438 243.359375 L 64.523438 234.625 C 63.011719 234.75 61.828125 235.203125 60.96875 235.957031 Z M 71.59375 258.097656 C 72.527344 257.320312 73 256.351562 73 255.175781 C 73 254.003906 72.628906 253.066406 71.894531 252.378906 C 71.152344 251.6875 69.777344 251.035156 67.757812 250.4375 L 67.757812 259.519531 C 69.371094 259.339844 70.644531 258.867188 71.59375 258.097656 Z M 71.59375 258.097656 "/></g></svg>