<svg xmlns="http://www.w3.org/2000/svg" xmlns:xlink="http://www.w3.org/1999/xlink" width="500" zoomAndPan="magnify" viewBox="0 0 375 374.999991" height="500" preserveAspectRatio="xMidYMid meet" version="1.2"><defs><clipPath id="20bb73b6ce"><path d="M 24.648438 80 L 152 80 L 152 225.953125 L 24.648438 225.953125 Z M 24.648438 80 "/></clipPath><clipPath id="52e5ddc639"><path d="M 52 0.25 L 250.351562 0.25 L 250.351562 138 L 52 138 Z M 52 0.25 "/></clipPath><clipPath id="fd32309b18"><rect x="0" width="283" y="0" height="297"/></clipPath></defs><g id="d0cb1f9bd7"><g transform="matrix(1,0,0,1,50,36)"><g clip-path="url(#fd32309b18)"><g clip-rule="nonzero" clip-path="url(#20bb73b6ce)"><path style=" stroke:none;fill-rule:evenodd;fill:#fe8b1f;fill-opacity:1;" d="M 41.378906 225.566406 L 105.757812 225.566406 L 151.191406 118.589844 L 135.09375 80.90625 L 24.664062 80.90625 L 48.945312 137.769531 L 78.804688 137.769531 Z M 41.378906 225.566406 "/></g><g clip-rule="nonzero" clip-path="url(#52e5ddc639)"><path style=" stroke:none;fill-rule:evenodd;fill:#fe8b1f;fill-opacity:1;" d="M 222.726562 137.71875 L 250.335938 73.226562 L 218.863281 0.25 L 82.324219 0.25 L 52.042969 57.113281 L 188.679688 57.113281 L 195.382812 72.785156 L 167.59375 137.769531 Z M 222.726562 137.71875 "/></g><g style="fill:#fe8b1f;fill-opacity:1;"><g transform="translate(0.472038, 283.872172)"><path style="stroke:none" d="M 10.78125 -13.84375 L 10.78125 0 L 2.765625 0 L 2.765625 -38.546875 L 15.421875 -38.546875 C 17.003906 -38.546875 18.578125 -38.394531 20.140625 -38.09375 C 21.703125 -37.800781 23.140625 -37.25 24.453125 -36.4375 C 25.773438 -35.632812 26.832031 -34.453125 27.625 -32.890625 C 28.414062 -31.328125 28.8125 -29.257812 28.8125 -26.6875 L 28.8125 -25.703125 C 28.8125 -23.128906 28.414062 -21.0625 27.625 -19.5 C 26.832031 -17.9375 25.773438 -16.738281 24.453125 -15.90625 C 23.140625 -15.082031 21.703125 -14.53125 20.140625 -14.25 C 18.578125 -13.976562 17.003906 -13.84375 15.421875 -13.84375 Z M 10.78125 -20.75 L 15.765625 -20.75 C 16.492188 -20.75 17.234375 -20.878906 17.984375 -21.140625 C 18.742188 -21.410156 19.382812 -21.914062 19.90625 -22.65625 C 20.4375 -23.394531 20.703125 -24.492188 20.703125 -25.953125 L 20.703125 -26.4375 C 20.703125 -27.882812 20.4375 -28.976562 19.90625 -29.71875 C 19.382812 -30.46875 18.742188 -30.972656 17.984375 -31.234375 C 17.234375 -31.492188 16.492188 -31.625 15.765625 -31.625 L 10.78125 -31.625 Z M 10.78125 -20.75 "/></g></g><g style="fill:#fe8b1f;fill-opacity:1;"><g transform="translate(36.640201, 283.872172)"><path style="stroke:none" d="M 12.359375 0.640625 C 8.734375 0.640625 5.921875 -0.367188 3.921875 -2.390625 C 1.929688 -4.421875 0.9375 -7.097656 0.9375 -10.421875 L 0.9375 -10.921875 C 0.9375 -13.460938 1.472656 -15.53125 2.546875 -17.125 C 3.617188 -18.71875 4.894531 -20.0625 6.375 -21.15625 C 5.351562 -22.46875 4.570312 -23.765625 4.03125 -25.046875 C 3.488281 -26.335938 3.21875 -27.921875 3.21875 -29.796875 L 3.21875 -30.34375 C 3.21875 -31.925781 3.578125 -33.382812 4.296875 -34.71875 C 5.023438 -36.050781 6.175781 -37.128906 7.75 -37.953125 C 9.332031 -38.773438 11.378906 -39.1875 13.890625 -39.1875 C 16.421875 -39.1875 18.460938 -38.773438 20.015625 -37.953125 C 21.566406 -37.128906 22.703125 -36.050781 23.421875 -34.71875 C 24.148438 -33.382812 24.515625 -31.925781 24.515625 -30.34375 L 24.515625 -29.796875 C 24.515625 -27.984375 24.148438 -26.457031 23.421875 -25.21875 C 22.703125 -23.988281 21.753906 -22.945312 20.578125 -22.09375 C 19.410156 -21.238281 18.1875 -20.445312 16.90625 -19.71875 L 23.03125 -12.453125 C 23.488281 -13.503906 23.84375 -14.613281 24.09375 -15.78125 C 24.34375 -16.957031 24.46875 -18.15625 24.46875 -19.375 L 24.46875 -19.515625 L 32.671875 -19.515625 L 32.671875 -19.328125 C 32.671875 -17.148438 32.289062 -14.929688 31.53125 -12.671875 C 30.769531 -10.421875 29.617188 -8.351562 28.078125 -6.46875 L 33.5625 0 L 24.171875 0 L 22.578125 -1.828125 C 21.160156 -1.066406 19.601562 -0.460938 17.90625 -0.015625 C 16.21875 0.421875 14.367188 0.640625 12.359375 0.640625 Z M 13.640625 -6.078125 L 13.890625 -6.078125 C 15.429688 -6.078125 16.863281 -6.40625 18.1875 -7.0625 L 10.828125 -15.765625 C 10.234375 -15.203125 9.757812 -14.566406 9.40625 -13.859375 C 9.0625 -13.148438 8.890625 -12.335938 8.890625 -11.421875 L 8.890625 -11.125 C 8.890625 -9.539062 9.289062 -8.300781 10.09375 -7.40625 C 10.90625 -6.519531 12.085938 -6.078125 13.640625 -6.078125 Z M 11.078125 -30.046875 L 11.078125 -29.75 C 11.078125 -28.894531 11.222656 -28.054688 11.515625 -27.234375 C 11.804688 -26.410156 12.1875 -25.617188 12.65625 -24.859375 C 13.800781 -25.546875 14.753906 -26.269531 15.515625 -27.03125 C 16.273438 -27.789062 16.65625 -28.695312 16.65625 -29.75 L 16.65625 -30.046875 C 16.65625 -30.835938 16.429688 -31.488281 15.984375 -32 C 15.546875 -32.507812 14.894531 -32.765625 14.03125 -32.765625 L 13.734375 -32.765625 C 12.910156 -32.765625 12.257812 -32.507812 11.78125 -32 C 11.3125 -31.488281 11.078125 -30.835938 11.078125 -30.046875 Z M 11.078125 -30.046875 "/></g></g><g style="fill:#fe8b1f;fill-opacity:1;"><g transform="translate(76.859782, 283.872172)"><path style="stroke:none" d="M 10.78125 -13.84375 L 10.78125 0 L 2.765625 0 L 2.765625 -38.546875 L 15.421875 -38.546875 C 17.003906 -38.546875 18.578125 -38.394531 20.140625 -38.09375 C 21.703125 -37.800781 23.140625 -37.25 24.453125 -36.4375 C 25.773438 -35.632812 26.832031 -34.453125 27.625 -32.890625 C 28.414062 -31.328125 28.8125 -29.257812 28.8125 -26.6875 L 28.8125 -25.703125 C 28.8125 -23.128906 28.414062 -21.0625 27.625 -19.5 C 26.832031 -17.9375 25.773438 -16.738281 24.453125 -15.90625 C 23.140625 -15.082031 21.703125 -14.53125 20.140625 -14.25 C 18.578125 -13.976562 17.003906 -13.84375 15.421875 -13.84375 Z M 10.78125 -20.75 L 15.765625 -20.75 C 16.492188 -20.75 17.234375 -20.878906 17.984375 -21.140625 C 18.742188 -21.410156 19.382812 -21.914062 19.90625 -22.65625 C 20.4375 -23.394531 20.703125 -24.492188 20.703125 -25.953125 L 20.703125 -26.4375 C 20.703125 -27.882812 20.4375 -28.976562 19.90625 -29.71875 C 19.382812 -30.46875 18.742188 -30.972656 17.984375 -31.234375 C 17.234375 -31.492188 16.492188 -31.625 15.765625 -31.625 L 10.78125 -31.625 Z M 10.78125 -20.75 "/></g></g><g style="fill:#fe8b1f;fill-opacity:1;"><g transform="translate(113.027945, 283.872172)"><path style="stroke:none" d=""/></g></g><g style="fill:#fe8b1f;fill-opacity:1;"><g transform="translate(128.988476, 283.872172)"><path style="stroke:none" d="M 14.328125 -16.109375 C 10.148438 -16.671875 7.046875 -17.78125 5.015625 -19.4375 C 2.992188 -21.101562 1.984375 -23.6875 1.984375 -27.1875 L 1.984375 -27.71875 C 1.984375 -31.21875 3.148438 -34.003906 5.484375 -36.078125 C 7.828125 -38.148438 11.1875 -39.1875 15.5625 -39.1875 C 20.3125 -39.1875 23.769531 -38.109375 25.9375 -35.953125 C 28.113281 -33.796875 29.203125 -30.460938 29.203125 -25.953125 L 29.203125 -24.90625 L 21.203125 -24.90625 C 21.203125 -27.445312 20.78125 -29.304688 19.9375 -30.484375 C 19.101562 -31.671875 17.664062 -32.265625 15.625 -32.265625 L 15.171875 -32.265625 C 13.554688 -32.265625 12.300781 -31.867188 11.40625 -31.078125 C 10.519531 -30.296875 10.078125 -29.273438 10.078125 -28.015625 L 10.078125 -27.78125 C 10.078125 -26.851562 10.25 -26.0625 10.59375 -25.40625 C 10.945312 -24.75 11.609375 -24.203125 12.578125 -23.765625 C 13.546875 -23.335938 14.972656 -22.992188 16.859375 -22.734375 C 21.066406 -22.171875 24.222656 -21.066406 26.328125 -19.421875 C 28.441406 -17.773438 29.5 -15.15625 29.5 -11.5625 L 29.5 -11.078125 C 29.5 -7.378906 28.304688 -4.5 25.921875 -2.4375 C 23.535156 -0.382812 20.082031 0.640625 15.5625 0.640625 C 11.019531 0.640625 7.570312 -0.421875 5.21875 -2.546875 C 2.863281 -4.671875 1.6875 -8.054688 1.6875 -12.703125 L 1.6875 -13.140625 L 9.6875 -13.140625 C 9.6875 -10.734375 10.171875 -8.988281 11.140625 -7.90625 C 12.117188 -6.820312 13.53125 -6.28125 15.375 -6.28125 L 15.8125 -6.28125 C 17.65625 -6.28125 19.035156 -6.710938 19.953125 -7.578125 C 20.878906 -8.453125 21.34375 -9.535156 21.34375 -10.828125 L 21.34375 -11.078125 C 21.34375 -11.992188 21.144531 -12.78125 20.75 -13.4375 C 20.363281 -14.101562 19.664062 -14.65625 18.65625 -15.09375 C 17.65625 -15.539062 16.210938 -15.878906 14.328125 -16.109375 Z M 14.328125 -16.109375 "/></g></g><g style="fill:#fe8b1f;fill-opacity:1;"><g transform="translate(166.243611, 283.872172)"><path style="stroke:none" d="M 22 -38.546875 L 30 -38.546875 L 30 0 L 22 0 L 22 -16.203125 L 10.78125 -16.203125 L 10.78125 0 L 2.765625 0 L 2.765625 -38.546875 L 10.78125 -38.546875 L 10.78125 -23.125 L 22 -23.125 Z M 22 -38.546875 "/></g></g><g style="fill:#fe8b1f;fill-opacity:1;"><g transform="translate(205.079784, 283.872172)"><path style="stroke:none" d="M 16.609375 0.640625 C 11.628906 0.640625 7.9375 -0.847656 5.53125 -3.828125 C 3.125 -6.804688 1.921875 -11.625 1.921875 -18.28125 L 1.921875 -20.265625 C 1.921875 -26.953125 3.125 -31.773438 5.53125 -34.734375 C 7.9375 -37.703125 11.628906 -39.1875 16.609375 -39.1875 C 21.617188 -39.1875 25.320312 -37.703125 27.71875 -34.734375 C 30.125 -31.773438 31.328125 -26.953125 31.328125 -20.265625 L 31.328125 -18.28125 C 31.328125 -11.625 30.125 -6.804688 27.71875 -3.828125 C 25.320312 -0.847656 21.617188 0.640625 16.609375 0.640625 Z M 16.40625 -6.28125 L 16.859375 -6.28125 C 19.328125 -6.28125 20.992188 -7.316406 21.859375 -9.390625 C 22.734375 -11.460938 23.171875 -14.425781 23.171875 -18.28125 L 23.171875 -20.265625 C 23.171875 -24.117188 22.734375 -27.082031 21.859375 -29.15625 C 20.992188 -31.226562 19.328125 -32.265625 16.859375 -32.265625 L 16.40625 -32.265625 C 13.9375 -32.265625 12.253906 -31.226562 11.359375 -29.15625 C 10.472656 -27.082031 10.03125 -24.117188 10.03125 -20.265625 L 10.03125 -18.28125 C 10.03125 -14.425781 10.472656 -11.460938 11.359375 -9.390625 C 12.253906 -7.316406 13.9375 -6.28125 16.40625 -6.28125 Z M 16.40625 -6.28125 "/></g></g><g style="fill:#fe8b1f;fill-opacity:1;"><g transform="translate(244.410022, 283.872172)"><path style="stroke:none" d="M 10.78125 -13.84375 L 10.78125 0 L 2.765625 0 L 2.765625 -38.546875 L 15.421875 -38.546875 C 17.003906 -38.546875 18.578125 -38.394531 20.140625 -38.09375 C 21.703125 -37.800781 23.140625 -37.25 24.453125 -36.4375 C 25.773438 -35.632812 26.832031 -34.453125 27.625 -32.890625 C 28.414062 -31.328125 28.8125 -29.257812 28.8125 -26.6875 L 28.8125 -25.703125 C 28.8125 -23.128906 28.414062 -21.0625 27.625 -19.5 C 26.832031 -17.9375 25.773438 -16.738281 24.453125 -15.90625 C 23.140625 -15.082031 21.703125 -14.53125 20.140625 -14.25 C 18.578125 -13.976562 17.003906 -13.84375 15.421875 -13.84375 Z M 10.78125 -20.75 L 15.765625 -20.75 C 16.492188 -20.75 17.234375 -20.878906 17.984375 -21.140625 C 18.742188 -21.410156 19.382812 -21.914062 19.90625 -22.65625 C 20.4375 -23.394531 20.703125 -24.492188 20.703125 -25.953125 L 20.703125 -26.4375 C 20.703125 -27.882812 20.4375 -28.976562 19.90625 -29.71875 C 19.382812 -30.46875 18.742188 -30.972656 17.984375 -31.234375 C 17.234375 -31.492188 16.492188 -31.625 15.765625 -31.625 L 10.78125 -31.625 Z M 10.78125 -20.75 "/></g></g></g></g></g></svg>