<svg xmlns="http://www.w3.org/2000/svg" viewBox="0 0 32 24"><rect width="32" height="24" fill="#fff"/><g><rect y="0" width="32" height="2" fill="#b22234"/><rect y="4" width="32" height="2" fill="#b22234"/><rect y="8" width="32" height="2" fill="#b22234"/><rect y="12" width="32" height="2" fill="#b22234"/><rect y="16" width="32" height="2" fill="#b22234"/><rect y="20" width="32" height="2" fill="#b22234"/></g><rect width="13" height="10" fill="#3c3b6e"/><g fill="#fff"><circle cx="2" cy="2" r="0.7"/><circle cx="4" cy="2" r="0.7"/><circle cx="6" cy="2" r="0.7"/><circle cx="8" cy="2" r="0.7"/><circle cx="10" cy="2" r="0.7"/><circle cx="12" cy="2" r="0.7"/><circle cx="3" cy="4" r="0.7"/><circle cx="5" cy="4" r="0.7"/><circle cx="7" cy="4" r="0.7"/><circle cx="9" cy="4" r="0.7"/><circle cx="11" cy="4" r="0.7"/><circle cx="2" cy="6" r="0.7"/><circle cx="4" cy="6" r="0.7"/><circle cx="6" cy="6" r="0.7"/><circle cx="8" cy="6" r="0.7"/><circle cx="10" cy="6" r="0.7"/><circle cx="12" cy="6" r="0.7"/><circle cx="3" cy="8" r="0.7"/><circle cx="5" cy="8" r="0.7"/><circle cx="7" cy="8" r="0.7"/><circle cx="9" cy="8" r="0.7"/><circle cx="11" cy="8" r="0.7"/></g></svg>
